<?xml version="1.0" standalone="no"?>
<!DOCTYPE svg PUBLIC "-//W3C//DTD SVG 20010904//EN"
 "http://www.w3.org/TR/2001/REC-SVG-20010904/DTD/svg10.dtd">
<svg version="1.0" xmlns="http://www.w3.org/2000/svg"
 width="800.000000pt" height="635.000000pt" viewBox="0 0 800.000000 635.000000"
 preserveAspectRatio="xMidYMid meet">

<g transform="translate(0.000000,635.000000) scale(0.100000,-0.100000)"
fill="#000000" stroke="none">
<path d="M0 3175 l0 -3175 4000 0 4000 0 0 3175 0 3175 -4000 0 -4000 0 0
-3175z m660 2720 c0 -8 -5 -25 -12 -39 -9 -20 -14 -23 -25 -15 -16 14 -17 56
0 62 23 10 37 7 37 -8z m6675 -27 c2 -7 6 -30 10 -50 4 -29 3 -38 -8 -38 -18
0 -31 -77 -22 -121 5 -23 2 -34 -10 -43 -21 -15 -38 -101 -25 -126 15 -29 12
-47 -10 -53 -24 -6 -30 -53 -14 -119 4 -19 0 -32 -16 -48 -18 -18 -21 -31 -19
-96 2 -57 -2 -78 -14 -92 -22 -24 -32 -89 -16 -108 10 -12 7 -19 -12 -40 -20
-21 -23 -35 -24 -98 0 -48 -5 -79 -15 -91 -8 -10 -15 -43 -16 -82 -2 -35 -8
-71 -14 -78 -13 -16 -18 -103 -7 -126 6 -12 1 -23 -14 -37 -18 -18 -22 -32
-23 -94 0 -40 -6 -78 -12 -85 -13 -14 -30 -131 -20 -140 3 -4 -1 -17 -10 -30
-8 -13 -18 -55 -21 -93 -6 -68 -7 -70 -39 -80 -19 -7 -34 -18 -34 -27 0 -12
-7 -14 -36 -9 -30 6 -36 4 -41 -13 -4 -16 -11 -18 -38 -14 -26 4 -35 1 -43
-14 -8 -15 -19 -19 -41 -15 -22 3 -32 -1 -41 -17 -9 -18 -17 -21 -45 -15 -28
5 -34 3 -40 -16 -6 -19 -12 -21 -41 -15 -26 4 -36 2 -40 -10 -4 -9 -18 -15
-35 -15 -18 0 -33 -7 -41 -19 -9 -15 -19 -18 -45 -14 -29 5 -35 3 -40 -16 -5
-20 -10 -22 -43 -16 -29 5 -39 3 -43 -9 -4 -10 -18 -16 -35 -16 -16 0 -36 -8
-46 -19 -10 -11 -25 -16 -40 -14 -16 3 -28 -2 -38 -16 -12 -17 -21 -20 -47
-15 -28 6 -33 4 -38 -15 -5 -19 -11 -22 -38 -17 -22 5 -36 2 -45 -9 -7 -8 -25
-15 -40 -15 -15 0 -35 -9 -44 -19 -10 -11 -25 -17 -37 -14 -22 6 -52 -14 -42
-30 4 -7 -5 -8 -25 -4 -25 5 -36 2 -52 -15 -11 -12 -20 -29 -20 -39 0 -9 -7
-22 -15 -29 -8 -7 -15 -16 -15 -21 0 -4 -11 -25 -25 -45 -14 -20 -25 -44 -25
-54 0 -9 -9 -25 -20 -35 -11 -10 -20 -22 -20 -26 0 -4 -13 -27 -29 -51 -16
-24 -39 -61 -50 -83 -12 -22 -26 -47 -31 -55 -5 -8 -30 -51 -55 -95 -26 -44
-50 -87 -55 -95 -57 -94 -70 -120 -70 -132 0 -8 -9 -23 -20 -33 -11 -10 -20
-24 -20 -31 0 -7 -6 -17 -13 -21 -7 -4 -28 -38 -46 -76 -19 -37 -40 -72 -48
-78 -7 -6 -13 -15 -13 -20 0 -4 -11 -25 -25 -45 -14 -20 -25 -45 -25 -55 0
-10 -9 -23 -20 -29 -11 -6 -20 -17 -20 -25 0 -8 -14 -34 -30 -59 -17 -24 -37
-60 -45 -79 -7 -18 -21 -39 -29 -47 -9 -7 -16 -21 -16 -31 0 -11 -4 -19 -8
-19 -11 0 -72 -115 -72 -134 0 -8 -6 -16 -14 -19 -8 -3 -20 -17 -28 -30 -7
-13 -23 -43 -36 -66 -13 -24 -22 -52 -20 -64 3 -22 3 -22 288 -22 l285 0 3 28
c2 18 -2 29 -12 33 -9 3 -16 15 -16 25 0 11 -7 22 -15 25 -8 4 -24 25 -35 48
-11 22 -31 59 -44 81 -41 68 -56 98 -56 110 0 14 30 77 40 85 7 6 56 106 64
132 9 31 33 20 56 -25 36 -69 46 -86 63 -105 10 -10 17 -25 17 -33 0 -8 10
-30 22 -49 42 -66 47 -75 57 -95 5 -12 16 -27 25 -34 9 -7 16 -19 16 -26 0
-13 20 -53 50 -100 11 -16 23 -37 26 -45 4 -8 15 -22 26 -30 10 -8 20 -26 23
-40 3 -14 14 -37 25 -52 11 -15 20 -32 20 -37 0 -5 8 -16 18 -23 21 -16 43
-81 32 -98 -5 -9 -18 -10 -36 -5 -16 4 -262 9 -548 11 -429 3 -523 1 -546 -11
-17 -9 -37 -37 -59 -83 -17 -39 -38 -76 -46 -82 -8 -7 -15 -16 -15 -21 0 -8
-62 -119 -101 -179 -5 -8 -13 -25 -18 -37 -6 -11 -14 -24 -20 -27 -6 -4 -15
-25 -21 -46 -6 -22 -20 -44 -30 -50 -11 -6 -20 -19 -20 -29 0 -10 -7 -24 -15
-31 -8 -7 -15 -16 -15 -21 0 -4 -11 -25 -25 -45 -14 -20 -25 -45 -25 -55 0
-10 -9 -23 -20 -29 -11 -6 -20 -15 -20 -19 0 -5 -18 -40 -40 -79 -22 -38 -40
-76 -40 -85 0 -9 -6 -20 -14 -24 -8 -4 -15 -17 -18 -28 -7 -38 -41 -23 -69 30
-42 82 -70 125 -82 125 -6 0 -8 3 -4 6 10 11 -98 204 -114 204 -5 0 -9 8 -9
18 0 9 -16 42 -35 72 -19 30 -40 67 -46 82 -6 14 -17 29 -25 32 -8 3 -14 13
-14 23 0 10 -10 34 -22 53 -42 66 -47 75 -57 95 -5 12 -16 27 -25 34 -9 7 -16
21 -16 30 0 9 -10 32 -22 51 -42 66 -47 75 -57 95 -5 12 -16 27 -25 34 -9 7
-16 19 -16 26 0 7 -11 29 -25 49 -14 20 -25 43 -25 50 0 8 -7 19 -16 26 -8 8
-29 41 -45 74 -17 34 -37 68 -45 77 -8 8 -14 23 -14 32 0 9 -9 21 -20 27 -11
6 -20 14 -20 19 0 12 -28 71 -50 106 -10 17 -28 48 -40 70 -115 211 -117 212
-172 109 -16 -29 -28 -59 -28 -68 0 -9 -7 -19 -15 -22 -8 -3 -17 -16 -21 -27
-3 -12 -12 -29 -19 -37 -7 -8 -27 -41 -43 -73 -16 -31 -36 -65 -43 -73 -7 -9
-19 -26 -25 -38 -66 -115 -66 -116 126 -116 148 0 185 4 174 21 -3 5 11 -1 30
-14 19 -12 35 -28 36 -34 0 -7 9 -22 20 -33 11 -11 20 -26 20 -34 0 -7 11 -30
25 -50 14 -20 25 -45 25 -56 0 -18 -12 -18 -342 -14 -336 4 -539 -5 -546 -26
-2 -6 -7 -10 -11 -10 -11 0 -12 58 -2 64 5 4 15 23 22 44 7 20 20 43 31 50 10
7 18 22 18 33 0 10 5 19 10 19 6 0 15 10 20 22 6 13 22 43 37 68 14 25 33 59
42 75 9 17 30 50 46 75 15 24 37 63 47 85 10 22 28 54 39 70 10 17 28 49 39
71 11 23 27 47 35 54 8 7 15 18 15 25 0 7 7 18 15 25 8 7 15 18 15 25 0 7 16
37 35 66 19 30 40 68 45 85 6 18 17 35 25 38 17 6 20 62 4 71 -5 4 -15 17 -20
28 -19 41 -38 72 -53 82 -8 6 -19 29 -25 52 -6 22 -18 46 -26 53 -8 7 -15 18
-15 26 0 7 -6 17 -13 21 -7 4 -28 40 -47 78 -19 39 -40 74 -47 78 -7 4 -13 17
-13 27 0 10 -4 21 -9 24 -5 4 -29 40 -53 82 -63 111 -63 112 -81 132 -10 10
-17 25 -17 34 0 8 -11 32 -25 52 -14 20 -25 41 -25 45 0 5 -7 14 -15 21 -8 7
-15 21 -15 31 0 10 -8 23 -19 28 -10 6 -22 22 -25 36 -6 23 -20 30 -52 26 -7
-1 -14 6 -18 14 -4 12 -14 14 -40 10 -29 -6 -35 -4 -41 15 -6 19 -12 21 -45
15 -33 -6 -38 -4 -43 16 -5 18 -10 21 -40 15 -29 -5 -35 -3 -40 14 -4 14 -13
20 -35 20 -16 0 -35 7 -42 15 -9 11 -23 14 -45 9 -27 -5 -33 -2 -38 16 -5 20
-10 22 -41 16 -29 -6 -35 -4 -41 15 -6 18 -12 20 -45 15 -32 -5 -38 -3 -43 14
-4 15 -14 20 -40 20 -22 0 -37 6 -41 15 -4 12 -14 14 -39 10 -30 -6 -35 -4
-40 16 -5 19 -10 21 -38 15 -26 -5 -35 -2 -47 15 -10 15 -22 20 -42 17 -18 -3
-31 1 -38 12 -7 12 -20 15 -40 12 -24 -3 -30 0 -35 18 -5 20 -10 22 -41 16
-29 -6 -37 -3 -46 15 -10 17 -18 20 -46 14 -21 -3 -34 -2 -34 4 0 6 -13 17
-29 25 -36 19 -42 33 -51 128 -4 43 -13 85 -21 94 -9 11 -14 44 -15 90 -1 46
-6 80 -15 90 -8 10 -14 44 -15 89 -1 60 -5 76 -23 94 -15 15 -20 28 -15 39 14
29 7 92 -11 112 -14 15 -15 23 -7 33 14 16 -3 130 -22 150 -6 7 -12 45 -13 86
-1 65 -5 77 -24 92 -20 15 -21 21 -12 41 10 23 4 102 -11 126 -4 6 -9 42 -12
79 -3 42 -11 74 -21 85 -12 14 -16 35 -14 87 2 62 0 71 -21 85 -20 14 -21 19
-11 46 9 24 9 42 -2 82 -7 28 -18 54 -24 57 -12 7 -4 131 8 131 3 0 19 -41 34
-90 17 -53 34 -90 41 -90 10 0 12 -12 8 -45 -3 -35 -1 -46 12 -51 11 -4 16
-18 16 -44 0 -21 7 -43 15 -50 9 -7 15 -29 15 -51 0 -21 5 -41 10 -44 6 -3 10
-19 10 -34 0 -15 7 -36 15 -47 8 -10 15 -28 15 -39 0 -11 7 -33 15 -49 8 -15
15 -38 15 -50 0 -11 7 -34 15 -50 8 -15 15 -38 15 -50 0 -12 7 -31 15 -42 8
-10 15 -34 15 -52 0 -20 10 -47 26 -68 l27 -35 23 22 c13 13 24 28 24 34 0 6
29 37 65 70 36 32 65 64 65 70 0 15 26 38 45 41 19 3 42 20 124 93 39 36 71
69 71 75 1 19 57 74 79 78 32 5 180 140 180 164 1 12 8 24 16 28 23 8 18 -23
-11 -69 -13 -22 -33 -59 -45 -82 -11 -24 -24 -43 -30 -43 -6 0 -19 -21 -30
-46 -11 -25 -27 -48 -35 -51 -8 -3 -14 -9 -14 -14 0 -4 -13 -28 -30 -52 -16
-25 -30 -48 -30 -52 0 -4 -11 -20 -25 -37 -14 -16 -25 -38 -25 -48 0 -10 -11
-25 -25 -34 -14 -9 -25 -21 -25 -27 0 -6 -11 -25 -25 -43 -14 -18 -25 -36 -25
-41 0 -4 -14 -24 -30 -45 -17 -21 -30 -45 -30 -53 0 -9 -6 -20 -14 -24 -7 -4
-21 -24 -31 -43 -17 -34 -54 -89 -66 -100 -46 -42 -66 -162 -32 -196 12 -11
16 -29 14 -56 -1 -23 4 -49 13 -63 9 -13 16 -42 16 -65 0 -28 6 -45 20 -57 11
-10 20 -24 20 -33 1 -28 39 -63 70 -63 16 0 32 -7 35 -15 4 -10 15 -12 45 -7
37 6 40 5 40 -15 0 -21 4 -22 39 -16 34 5 39 3 44 -15 5 -18 12 -21 41 -17 28
3 37 0 41 -13 3 -10 20 -21 38 -24 18 -4 37 -12 44 -17 7 -5 25 -7 41 -3 25 5
30 2 35 -16 5 -19 11 -21 46 -16 33 4 40 2 44 -14 4 -14 14 -19 40 -19 22 0
37 -6 41 -15 3 -9 18 -15 40 -15 21 0 36 -6 40 -15 3 -9 18 -15 37 -15 19 0
37 -7 45 -17 11 -16 14 -16 28 -3 19 19 11 35 -121 265 -12 22 -25 46 -28 53
-12 28 -16 38 -29 59 -7 13 -21 32 -31 43 -10 11 -15 20 -11 20 5 0 -6 25 -23
55 -41 72 -41 63 14 190 8 17 21 48 30 70 9 22 23 55 31 73 8 18 14 41 14 51
0 10 7 24 15 31 8 7 15 20 15 29 0 10 7 26 15 37 8 10 15 31 15 45 0 15 7 32
15 39 8 7 15 23 15 35 0 12 7 28 16 36 9 7 14 22 11 36 -2 13 1 27 9 31 15 8
46 87 48 122 0 14 8 31 17 37 16 12 22 31 36 111 5 34 27 43 37 16 3 -8 3 -26
0 -39 -3 -13 -1 -33 6 -44 9 -19 8 -25 -12 -41 -21 -16 -23 -26 -22 -97 0 -59
-4 -81 -15 -90 -12 -9 -16 -30 -15 -90 0 -59 -4 -81 -15 -90 -12 -9 -16 -31
-16 -98 0 -65 -4 -88 -15 -95 -11 -7 -15 -30 -15 -95 0 -47 -4 -85 -9 -85 -19
0 4 -72 44 -137 56 -92 58 -96 64 -113 3 -8 19 -37 36 -65 16 -27 35 -61 40
-75 6 -13 14 -27 18 -30 4 -3 20 -31 36 -62 15 -31 32 -58 37 -60 5 -2 11 -13
13 -25 3 -12 18 -46 35 -75 17 -29 36 -65 42 -80 6 -16 15 -28 20 -28 5 0 9
-6 9 -14 0 -7 8 -24 18 -37 11 -13 22 -35 25 -49 17 -69 62 -77 91 -15 9 19
26 40 37 46 11 6 25 24 31 40 5 16 16 29 23 29 18 0 85 85 85 109 0 11 9 22
20 26 34 11 150 148 150 177 0 16 30 48 45 48 7 0 20 9 30 20 10 11 22 17 27
12 12 -12 -1 -42 -18 -42 -8 0 -14 -6 -14 -13 0 -7 -9 -29 -20 -50 -11 -20
-20 -42 -20 -48 0 -6 -13 -31 -30 -56 -16 -24 -30 -49 -30 -56 0 -7 -18 -48
-40 -92 -22 -44 -40 -88 -40 -98 0 -10 -8 -26 -18 -35 -16 -15 -26 -35 -56
-112 -3 -8 -10 -22 -15 -30 -5 -8 -19 -36 -31 -62 -12 -27 -26 -50 -31 -54
-23 -14 12 -105 48 -127 7 -4 13 -14 13 -21 0 -7 11 -30 25 -50 14 -20 25 -43
25 -50 0 -7 9 -21 20 -31 11 -10 20 -23 20 -29 0 -7 9 -19 20 -29 11 -9 20
-24 20 -33 0 -9 17 -42 37 -73 20 -31 52 -85 71 -121 45 -88 56 -107 74 -127
8 -10 21 -34 28 -53 16 -41 77 -140 97 -156 8 -7 16 -22 18 -35 3 -13 14 -36
25 -51 11 -15 20 -34 20 -43 0 -9 7 -18 15 -21 8 -4 15 -12 15 -20 0 -7 8 -21
19 -31 10 -10 24 -35 30 -55 7 -20 19 -42 27 -48 7 -7 14 -19 14 -26 0 -8 9
-19 20 -26 11 -7 20 -20 20 -28 0 -8 16 -42 35 -75 19 -33 39 -69 44 -80 5
-12 16 -27 25 -34 9 -7 16 -20 16 -28 0 -24 30 -73 45 -73 8 0 19 -9 25 -21
11 -20 17 -21 279 -17 235 3 270 5 294 21 l27 17 0 -28 c0 -29 -24 -87 -40
-97 -5 -3 -14 -22 -21 -42 -6 -20 -26 -51 -43 -68 l-31 -32 -75 8 c-94 10
-237 0 -250 -16 -8 -9 0 -30 27 -74 21 -34 43 -71 49 -81 6 -11 18 -28 27 -38
10 -10 17 -25 18 -33 0 -8 9 -27 20 -44 10 -16 23 -40 28 -52 5 -11 15 -24 20
-28 6 -3 11 -15 11 -25 0 -10 6 -23 13 -27 7 -4 18 -20 24 -36 17 -37 57 -37
72 1 28 71 49 112 84 163 20 31 37 65 37 77 0 11 8 27 18 34 21 16 62 73 62
87 0 6 11 27 25 47 14 20 25 45 25 54 0 10 6 20 14 23 15 6 20 14 77 125 20
38 49 89 65 113 16 24 44 74 63 112 19 37 40 72 48 78 7 6 13 17 13 24 0 7 7
18 15 25 8 7 20 30 25 51 6 22 15 39 21 39 5 0 17 15 25 32 17 36 34 66 64
113 11 17 28 46 37 65 10 19 32 55 48 80 59 86 76 153 45 172 -11 7 -20 19
-20 26 0 7 -11 30 -25 52 -14 22 -25 42 -25 45 0 3 -16 28 -35 55 -19 27 -35
54 -35 60 0 9 -22 50 -58 105 -6 11 -16 29 -21 40 -5 12 -16 27 -25 34 -9 7
-16 19 -16 25 0 16 -89 168 -111 189 -11 10 -19 26 -19 36 0 10 -8 29 -19 42
-10 13 -21 34 -25 47 -4 12 -12 22 -17 22 -5 0 -14 11 -19 25 -18 45 -30 70
-50 100 -11 17 -24 39 -29 50 -5 12 -16 27 -25 34 -9 7 -16 19 -16 26 0 13
-20 53 -50 100 -11 17 -24 40 -29 52 -6 12 -17 25 -26 30 -8 5 -17 18 -19 29
-4 20 -44 97 -77 149 -10 17 -24 41 -31 55 -7 14 -13 26 -14 28 -1 2 -12 -1
-23 -7 -11 -7 -37 -45 -57 -86 -20 -41 -43 -80 -50 -86 -8 -6 -14 -19 -14 -29
0 -10 -7 -23 -15 -30 -8 -7 -15 -18 -15 -25 0 -7 -7 -18 -15 -25 -8 -7 -19
-29 -25 -50 -6 -21 -17 -41 -25 -44 -9 -3 -20 -16 -25 -28 -6 -13 -19 -36 -30
-53 -30 -47 -50 -87 -50 -100 0 -7 -7 -19 -16 -26 -9 -7 -20 -22 -25 -34 -5
-11 -18 -33 -29 -50 -20 -32 -50 -93 -50 -104 0 -4 -9 -14 -20 -24 -11 -9 -20
-23 -20 -31 0 -8 -7 -16 -14 -19 -8 -3 -18 -22 -21 -41 -4 -19 -16 -45 -27
-58 -36 -42 -89 -130 -101 -170 -6 -21 -15 -38 -19 -38 -4 0 -26 -34 -49 -75
-23 -42 -46 -74 -52 -72 -6 2 -25 32 -43 66 -18 34 -41 71 -52 81 -28 27 -39
96 -18 119 9 10 16 25 16 34 0 9 5 17 10 17 6 0 15 10 20 23 6 12 19 36 29 52
11 17 20 37 20 46 1 9 10 24 21 34 11 10 20 22 20 26 0 4 14 28 30 53 17 25
36 60 42 78 6 18 18 41 26 51 8 9 20 26 26 36 6 11 26 44 44 74 17 30 32 62
32 70 0 9 9 21 20 27 11 6 20 17 20 24 0 8 6 19 14 25 8 7 18 26 21 42 4 16
17 42 29 57 12 15 26 34 30 42 7 15 13 25 54 90 12 19 22 42 22 51 0 9 7 23
16 30 9 7 20 22 25 34 5 11 18 34 29 50 11 17 31 51 45 77 13 26 29 49 35 53
5 3 10 15 10 25 0 10 6 23 13 27 7 4 28 40 47 78 19 39 37 72 41 75 8 6 35 57
50 93 17 41 47 32 67 -18 9 -22 27 -58 41 -80 14 -22 31 -52 38 -67 7 -16 17
-28 23 -28 5 0 10 -8 10 -17 0 -10 10 -34 22 -53 42 -66 47 -75 57 -95 5 -12
16 -27 25 -34 9 -7 16 -17 16 -21 0 -12 29 -72 50 -105 11 -16 24 -39 29 -50
5 -11 18 -29 30 -39 11 -11 21 -30 21 -43 0 -13 9 -31 20 -40 11 -10 20 -25
20 -35 0 -9 9 -22 20 -28 11 -6 20 -18 20 -28 0 -9 10 -33 22 -52 12 -19 28
-44 35 -55 7 -11 17 -32 23 -47 6 -14 18 -29 26 -32 8 -3 14 -13 14 -23 0 -10
10 -34 22 -53 35 -55 41 -66 67 -112 13 -24 36 -62 51 -85 15 -22 31 -50 34
-61 4 -11 13 -23 21 -26 8 -3 15 -13 15 -23 0 -10 10 -34 22 -53 42 -66 47
-75 57 -95 5 -12 16 -27 25 -34 9 -7 16 -18 16 -25 0 -6 14 -39 31 -73 25 -50
36 -63 54 -63 20 0 31 15 64 84 23 45 52 100 66 120 14 20 25 39 25 41 0 2 11
21 25 41 14 20 25 45 25 55 0 11 4 19 10 19 12 0 76 118 85 156 4 22 0 43 -15
70 -12 22 -25 46 -29 54 -4 8 -15 31 -23 50 -8 19 -22 51 -30 70 -9 19 -19 42
-22 50 -3 8 -10 22 -15 30 -5 8 -19 38 -31 65 -13 28 -29 54 -37 58 -7 4 -13
15 -13 24 0 9 -12 41 -26 72 -14 31 -33 72 -41 91 -8 19 -19 42 -24 50 -56 94
-55 140 1 65 19 -25 48 -53 65 -63 18 -11 42 -41 59 -76 19 -37 51 -77 92
-113 35 -31 61 -60 58 -64 -5 -9 114 -154 145 -175 33 -24 53 -1 129 151 11
22 23 47 26 55 4 8 15 29 26 45 11 17 25 41 32 55 7 14 15 27 18 30 3 3 16 24
27 47 12 23 26 50 32 60 5 10 12 25 15 33 4 8 15 29 26 45 11 17 27 44 35 60
9 17 25 46 37 65 11 19 37 67 57 105 19 39 42 75 50 81 17 13 9 93 -11 109 -9
7 -13 36 -13 93 0 65 -4 86 -16 95 -12 9 -16 30 -15 95 1 65 -3 86 -15 95 -11
9 -15 31 -15 90 1 65 -2 81 -17 92 -14 10 -17 21 -12 44 9 44 -5 121 -26 142
-23 23 -24 66 -2 91 23 25 35 22 27 -7 -4 -15 0 -34 8 -48 8 -12 18 -34 22
-49 3 -16 11 -28 16 -28 6 0 10 -13 10 -28 0 -16 7 -37 15 -48 8 -10 15 -29
15 -40 0 -12 7 -27 15 -34 8 -7 15 -20 15 -30 0 -10 7 -31 15 -46 8 -16 15
-36 15 -45 0 -9 7 -22 15 -29 8 -7 15 -21 15 -31 0 -10 6 -33 14 -51 8 -18 17
-40 20 -48 3 -8 10 -22 15 -30 5 -8 17 -41 28 -74 10 -32 24 -61 31 -63 6 -3
12 -18 12 -33 0 -16 4 -31 9 -34 4 -3 11 -20 15 -38 3 -17 13 -39 21 -47 21
-25 23 -111 2 -123 -9 -5 -17 -17 -17 -26 0 -10 -5 -23 -10 -28 -10 -10 -37
-59 -110 -201 -24 -46 -46 -83 -49 -83 -4 0 -12 -12 -19 -27 -16 -37 -37 -72
-51 -86 -15 -15 -14 -42 3 -56 11 -9 17 -8 29 4 9 8 29 15 46 15 20 0 34 7 41
21 9 16 18 19 37 14 14 -3 31 -1 40 7 9 7 21 13 27 14 6 0 18 2 27 2 9 1 19
10 21 20 4 15 12 18 37 14 31 -4 65 13 56 28 -3 5 13 6 36 3 35 -5 41 -3 46
16 5 18 10 21 40 15 30 -6 35 -4 40 16 5 19 11 21 43 16 28 -4 39 -2 44 9 3 9
18 15 37 15 22 0 32 5 36 19 4 16 11 18 44 14 35 -5 41 -3 46 16 5 18 10 21
35 16 43 -10 90 43 96 110 3 28 9 53 15 56 5 4 12 31 15 60 3 30 11 63 18 74
8 11 14 34 14 52 0 17 5 35 10 38 16 10 12 37 -10 70 -11 17 -25 39 -32 50 -7
11 -23 34 -35 52 -13 17 -23 36 -23 42 0 6 -11 18 -24 26 -14 9 -27 30 -30 49
-4 19 -13 40 -22 47 -9 7 -25 30 -37 52 -39 71 -44 78 -64 92 -11 8 -25 32
-32 54 -6 23 -16 41 -20 41 -5 0 -19 19 -31 43 -12 23 -28 46 -36 50 -8 4 -14
14 -14 21 0 7 -13 32 -30 54 -16 23 -30 46 -30 51 0 5 -6 11 -14 14 -8 3 -24
26 -35 51 -11 25 -26 46 -34 46 -8 0 -17 10 -20 23 -2 12 -8 30 -12 40 -9 21
20 24 32 3 9 -17 83 -61 83 -51 0 5 11 -4 25 -19 14 -15 25 -32 25 -39 0 -18
157 -158 213 -191 27 -15 51 -36 55 -47 9 -24 191 -189 208 -189 6 0 19 -11
28 -25 14 -21 20 -24 36 -15 12 7 20 21 20 38 1 15 7 38 15 52 8 14 15 36 15
50 0 14 7 34 15 44 8 11 15 34 15 51 0 17 4 35 9 41 5 5 12 23 14 39 3 17 12
44 21 60 9 17 16 39 16 51 0 11 5 25 11 31 6 6 11 28 11 49 0 23 6 43 16 50 9
7 15 25 14 47 -1 24 4 37 15 41 12 5 14 16 10 50 -5 38 -4 45 13 49 13 3 21
17 25 43 3 22 10 46 15 55 5 9 12 33 15 53 4 20 11 36 16 36 5 0 9 20 9 45 0
41 15 62 25 33z"/>
</g>
</svg>
